<svg width="360" height="70" viewBox="0 0 360 70" fill="none" xmlns="http://www.w3.org/2000/svg">
<path d="M50.0316 69.6746H56.5292L62.0522 64.1437C63.3517 62.8424 63.3517 60.8903 62.0522 59.5889L55.5546 53.082C54.255 51.7806 52.3058 51.7806 51.0062 53.082L44.5086 59.5889C43.2091 60.8903 43.2091 62.8424 44.5086 64.1437L50.0316 69.6746Z" fill="#FCC195"/>
<path d="M31.5134 33.5614L25.0158 40.0683C23.7162 41.3696 21.767 41.3696 20.4674 40.0683L18.843 38.4415C17.5435 37.1401 17.5435 35.1881 18.843 33.8867L25.3406 27.3798C26.6402 26.0784 28.5894 26.0784 29.889 27.3798L31.5134 29.0065C32.488 30.3079 32.488 32.5853 31.5134 33.5614Z" fill="#A68267"/>
<path d="M72.1234 23.4757L40.2851 55.3594C38.9856 56.6608 37.0363 56.6608 35.7368 55.3594L29.2392 48.8526C27.9397 47.5512 27.9397 45.5991 29.2392 44.2977L61.0775 12.414C62.377 11.1126 64.3263 11.1126 65.6258 12.414L72.1234 18.9209C73.4229 20.2222 73.4229 22.1743 72.1234 23.4757Z" fill="#FCC195"/>
<path d="M74.7224 51.13L68.2248 57.6369C66.9253 58.9382 64.976 58.9382 63.6765 57.6369L57.1789 51.13C55.8793 49.8286 55.8793 47.8765 57.1789 46.5751L63.6765 40.0683C64.976 38.7669 66.9253 38.7669 68.2248 40.0683L74.7224 46.5751C76.0219 47.8765 76.0219 50.1539 74.7224 51.13Z" fill="#A68267"/>
<path d="M87.3927 38.4415L80.8951 44.9484C79.5956 46.2498 77.6463 46.2498 76.3468 44.9484L69.8492 38.4415C68.5497 37.1401 68.5497 35.1881 69.8492 33.8867L76.3468 27.3798C77.6463 26.0784 79.5956 26.0784 80.8951 27.3798L87.3927 33.8867C88.6923 35.5134 88.6923 37.4655 87.3927 38.4415Z" fill="#FCC195"/>
<path d="M41.5846 69.6742L9.42152 37.4651C8.77176 36.8144 8.77176 35.513 9.42152 34.8623L41.5846 2.65323H32.488L0.97464 34.2116C-0.32488 35.513 -0.32488 37.1397 0.97464 38.4411L32.488 69.9996H41.5846V69.6742Z" fill="#262626"/>
<path d="M73.098 2.32834H64.0014L96.1645 34.5374C96.8143 35.1881 96.8143 36.4895 96.1645 37.1402L64.0014 69.3493H73.098L104.611 37.7909C105.911 36.4895 105.911 34.8628 104.611 33.5614L73.098 2.32834Z" fill="#262626"/>
<path d="M156.188 6.83228L150.016 27.329H144.493L140.594 13.0138L136.696 27.329H131.173L125 6.83228H130.198L133.772 22.4488L137.67 6.83228H143.193L147.092 22.4488L150.666 6.83228H156.188Z" fill="#262626"/>
<path d="M177.955 18.87H163.011C163.011 20.4967 163.661 21.4728 164.635 22.4488C165.61 23.4248 166.585 23.7502 167.884 23.7502C169.833 23.7502 171.133 22.7742 172.107 21.1474H177.63C176.981 23.0995 176.006 24.7262 174.057 26.0276C172.432 27.329 170.158 27.9797 167.884 27.9797C165.935 27.9797 163.985 27.6543 162.686 26.6783C161.062 25.7023 159.762 24.4009 159.112 23.0995C158.463 21.7981 157.813 19.5207 157.813 17.5686C157.813 15.2912 158.138 13.6645 159.112 12.0378C160.087 10.4111 161.062 9.10969 162.686 8.459C164.31 7.48297 165.935 7.15762 168.209 7.15762C170.158 7.15762 171.783 7.48297 173.407 8.459C175.031 9.43503 176.006 10.4111 176.981 12.0378C177.955 13.6645 178.28 15.2912 178.28 17.2433C177.955 17.5686 177.955 18.2193 177.955 18.87ZM172.757 15.2912C172.757 13.9899 172.107 13.0138 171.458 12.0378C170.483 11.3871 169.508 10.7364 167.884 10.7364C166.585 10.7364 165.61 11.0618 164.635 12.0378C163.661 12.6885 163.336 13.9899 163.011 15.2912H172.757Z" fill="#262626"/>
<path d="M189.651 7.48293C190.951 6.83224 192.25 6.50689 193.55 6.50689C195.174 6.50689 196.798 6.83224 198.423 7.80827C199.722 8.7843 201.022 9.76034 201.672 11.3871C202.646 13.0138 202.971 14.9658 202.971 16.9179C202.971 18.87 202.646 20.8221 201.672 22.4488C200.697 24.0755 199.722 25.3769 198.423 26.3529C197.123 27.3289 195.499 27.6543 193.55 27.6543C191.925 27.6543 190.626 27.3289 189.651 26.6783C188.676 26.0276 187.702 25.3769 186.727 24.4008V27.3289H181.854V0H187.052V10.0857C187.702 9.10965 188.676 8.13361 189.651 7.48293ZM197.123 13.9898C196.474 13.0138 195.824 12.3631 195.174 12.0377C194.199 11.7124 193.55 11.3871 192.575 11.3871C191.6 11.3871 190.626 11.7124 189.976 12.0377C189.001 12.3631 188.352 13.3391 188.027 13.9898C187.377 14.9658 187.377 15.9419 187.377 17.2433C187.377 18.5446 187.702 19.5207 188.027 20.4967C188.352 21.4727 189.001 22.1234 189.651 22.4488C190.626 22.7741 191.276 23.0995 192.25 23.0995C193.225 23.0995 194.199 22.7741 194.849 22.4488C195.499 22.1234 196.474 21.1474 196.798 20.1714C197.123 19.1953 197.448 18.2193 197.448 16.9179C197.773 15.9419 197.773 14.9658 197.123 13.9898Z" fill="#262626"/>
<path d="M143.193 39.3666V43.9214H131.498V51.079H140.269V55.6338H131.498V67.3462H125.975V39.3666H143.193V39.3666Z" fill="#262626"/>
<path d="M161.387 67.3462L155.214 56.2845H152.615V67.3462H147.092V39.3666H157.488C159.762 39.3666 161.387 39.692 163.011 40.668C164.635 41.3187 165.61 42.6201 166.585 43.5961C167.234 44.8975 167.884 46.1988 167.884 47.8256C167.884 49.7776 167.234 51.4044 166.26 52.7057C165.285 54.0071 163.661 55.3085 161.387 55.6338L168.209 67.0209H161.387V67.3462ZM152.615 52.055H157.163C158.787 52.055 159.762 51.7297 160.412 51.079C161.062 50.4283 161.387 49.4523 161.387 48.1509C161.387 46.8495 161.062 45.8735 160.412 45.2228C159.762 44.5721 158.463 44.2468 157.163 44.2468H152.615V52.055Z" fill="#262626"/>
<path d="M178.28 65.7195C176.006 64.4182 174.382 62.7914 173.082 60.514C171.783 58.2366 171.133 55.9592 171.133 53.0311C171.133 50.4283 171.783 47.8256 173.082 45.5482C174.382 43.2708 176.006 41.644 178.28 40.3427C180.554 39.0413 182.829 38.3906 185.428 38.3906C188.027 38.3906 190.626 39.0413 192.575 40.3427C194.849 41.644 196.474 43.2708 197.773 45.5482C199.073 47.8256 199.722 50.103 199.722 53.0311C199.722 55.6339 199.073 58.2366 197.773 60.514C196.474 62.7914 194.849 64.4182 192.575 65.7195C190.301 67.0209 188.027 67.6716 185.428 67.6716C182.829 67.6716 180.554 67.0209 178.28 65.7195ZM189.976 61.4901C191.275 60.8394 192.25 59.538 192.9 58.2366C193.55 56.9352 193.875 55.3085 193.875 53.3564C193.875 51.4044 193.55 49.7777 192.9 48.4763C192.25 47.1749 191.275 45.8735 189.976 45.2228C188.676 44.5721 187.052 44.2468 185.428 44.2468C183.803 44.2468 182.179 44.5721 180.879 45.2228C179.58 45.8735 178.605 47.1749 177.955 48.4763C177.306 49.7777 176.981 51.4044 176.981 53.3564C176.981 55.3085 177.306 56.9352 177.955 58.2366C178.605 59.538 179.58 60.8394 180.879 61.4901C182.179 62.1407 183.803 62.7914 185.428 62.7914C187.052 62.7914 188.676 62.1407 189.976 61.4901Z" fill="#262626"/>
<path d="M227.987 67.3462H222.464L209.793 48.1509V67.3462H204.271V39.3666H209.793L222.464 58.5619V39.3666H227.987V67.3462Z" fill="#262626"/>
<path d="M252.678 39.3666V43.9214H245.206V67.3462H239.683V43.9214H232.21V39.3666H252.678V39.3666Z" fill="#262626"/>
<path d="M288.415 43.5952V50.7528H297.836V55.3076H288.415V62.7906H299.136V67.3454H282.567V39.0404H299.136V43.5952H288.415V43.5952Z" fill="#262626"/>
<path d="M328.7 67.3454H323.177L310.182 47.8247V67.3454H304.659V39.0404H310.182L323.177 58.5611V39.0404H328.7V67.3454Z" fill="#262626"/>
<path d="M352.091 40.6676C354.365 41.969 355.99 43.5957 357.289 45.5478C358.589 47.4998 359.238 50.1026 359.238 53.0307C359.238 55.9588 358.589 58.2362 357.289 60.5136C355.99 62.791 354.365 64.4177 352.091 65.3938C349.817 66.3698 347.218 67.0205 344.294 67.0205H334.547V38.7155H344.294C346.893 39.0409 349.817 39.6915 352.091 40.6676ZM350.791 60.1883C352.416 58.5615 353.066 56.2841 353.066 53.356C353.066 50.4279 352.091 48.1505 350.791 46.5238C349.492 44.8971 346.893 43.921 343.969 43.921H340.07V62.791H343.969C346.893 62.4657 349.167 61.815 350.791 60.1883Z" fill="#262626"/>
<path d="M266.648 61.8154C270.416 61.8154 273.47 58.7565 273.47 54.9832C273.47 51.2098 270.416 48.1509 266.648 48.1509C262.88 48.1509 259.825 51.2098 259.825 54.9832C259.825 58.7565 262.88 61.8154 266.648 61.8154Z" fill="#FCC195"/>
</svg>
