<svg width="35" height="35" viewBox="0 0 35 35" fill="none" xmlns="http://www.w3.org/2000/svg">
<circle cx="17.5" cy="17.5" r="17.5" fill="#A68267"/>
<path d="M28.3307 10.8085C27.5463 11.1469 26.6926 11.3904 25.8134 11.4852C26.7262 10.9429 27.4099 10.0861 27.736 9.07557C26.8793 9.58516 25.9409 9.9425 24.9623 10.1317C24.5533 9.69446 24.0586 9.34612 23.5091 9.1084C22.9595 8.87069 22.3669 8.74869 21.7682 8.75001C19.3457 8.75001 17.3975 10.7136 17.3975 13.1233C17.3975 13.4617 17.4385 13.8001 17.5051 14.1256C13.8778 13.9359 10.6427 12.203 8.49194 9.54982C8.10005 10.2192 7.89469 10.9813 7.89722 11.757C7.89722 13.2745 8.66882 14.6127 9.84546 15.3997C9.15205 15.3724 8.47488 15.1818 7.86902 14.8434V14.8972C7.86902 17.0223 9.37122 18.7835 11.3733 19.1885C10.9974 19.2861 10.6107 19.3361 10.2223 19.3372C9.93774 19.3372 9.66858 19.309 9.39685 19.2705C9.95056 21.0034 11.563 22.2621 13.483 22.3031C11.9808 23.4797 10.0992 24.1719 8.05615 24.1719C7.68958 24.1719 7.3512 24.1591 7 24.1181C8.93799 25.3613 11.2374 26.0791 13.7137 26.0791C21.7528 26.0791 26.1517 19.4192 26.1517 13.6386C26.1517 13.4489 26.1517 13.2592 26.1389 13.0695C26.99 12.4465 27.736 11.6749 28.3307 10.8085Z" fill="white"/>
</svg>
